<?xml version="1.0" standalone="no"?>
<!DOCTYPE svg PUBLIC "-//W3C//DTD SVG 20010904//EN"
 "http://www.w3.org/TR/2001/REC-SVG-20010904/DTD/svg10.dtd">
<svg version="1.0" xmlns="http://www.w3.org/2000/svg"
 width="584.000000pt" height="584.000000pt" viewBox="0 0 584.000000 584.000000"
 preserveAspectRatio="xMidYMid meet">
<metadata>
Created by potrace 1.14, written by Peter Selinger 2001-2017
</metadata>
<g transform="translate(0.000000,584.000000) scale(0.100000,-0.100000)"
fill="#000000" stroke="none">
<path d="M2699 5786 c-2 -2 -31 -6 -64 -9 -113 -12 -371 -53 -386 -63 -4 -2
-23 -6 -44 -10 -20 -3 -54 -12 -76 -19 -21 -8 -39 -13 -39 -11 0 2 -51 -14
-112 -36 -62 -21 -117 -40 -123 -42 -5 -1 -21 -8 -35 -13 -14 -6 -48 -20 -76
-31 -47 -19 -160 -73 -194 -93 -8 -5 -32 -17 -52 -26 -21 -10 -38 -21 -38 -25
0 -5 -5 -8 -10 -8 -13 0 -243 -145 -264 -166 -8 -8 -18 -14 -23 -14 -4 0 -26
-15 -47 -33 -22 -17 -71 -58 -110 -90 -87 -72 -232 -211 -253 -243 -8 -13 -19
-21 -24 -18 -5 3 -9 0 -9 -6 0 -6 -10 -22 -23 -35 -100 -106 -227 -279 -321
-440 -23 -38 -48 -83 -56 -100 -8 -16 -23 -43 -35 -60 -11 -16 -19 -31 -18
-32 3 -4 -24 -67 -33 -76 -4 -4 -9 -17 -11 -29 -2 -12 -7 -26 -12 -32 -27 -32
-143 -376 -157 -464 -3 -19 -8 -43 -10 -53 -7 -32 -13 -63 -19 -89 -2 -14 -8
-38 -12 -55 -4 -16 -8 -208 -9 -425 -3 -352 -1 -406 16 -500 25 -139 30 -162
36 -182 3 -9 7 -25 9 -35 2 -10 14 -52 25 -93 12 -41 22 -80 23 -86 2 -7 9
-19 16 -28 7 -9 11 -16 7 -16 -6 0 27 -94 61 -170 23 -52 30 -71 31 -84 0 -5
4 -12 9 -15 4 -3 33 -55 62 -114 30 -60 65 -124 78 -143 12 -19 23 -37 23 -40
0 -8 99 -153 149 -219 46 -61 58 -75 98 -123 13 -15 23 -31 23 -35 0 -5 4 -5
10 -2 5 3 10 3 10 -2 0 -17 156 -182 246 -260 27 -23 63 -54 79 -68 68 -60
344 -255 360 -255 1 0 33 -18 69 -40 36 -22 69 -40 73 -40 5 0 19 -9 33 -20
14 -11 31 -20 38 -20 8 0 27 -9 43 -21 16 -11 29 -17 29 -13 0 3 7 1 15 -6 8
-7 15 -9 15 -4 0 5 4 3 9 -4 4 -7 14 -15 22 -16 8 -2 28 -9 44 -16 17 -7 32
-14 35 -15 3 0 42 -15 87 -33 45 -18 90 -33 100 -35 10 -1 23 -5 28 -9 14 -8
241 -66 290 -74 22 -3 43 -8 46 -10 4 -2 24 -6 45 -9 22 -3 48 -7 59 -9 109
-22 241 -28 521 -23 170 2 320 7 334 10 14 4 41 9 60 11 20 2 47 7 60 10 14 3
42 8 64 11 75 10 291 68 400 107 61 22 117 40 124 41 6 0 12 4 12 8 0 4 10 9
23 13 13 3 43 14 68 25 24 11 48 20 53 20 5 -1 12 3 15 8 3 4 35 22 71 40 74
37 180 94 195 106 6 4 68 45 138 92 71 46 152 104 180 127 29 24 65 54 82 68
75 61 322 317 382 396 13 16 37 47 54 69 27 34 145 212 186 280 6 11 31 58 55
105 24 47 46 87 49 90 7 6 21 40 25 59 1 8 6 17 11 20 4 3 10 15 11 26 2 11
15 41 28 67 13 26 24 49 23 50 0 2 2 10 5 18 55 153 103 320 110 380 2 15 5
31 8 36 3 5 8 32 12 59 3 28 11 68 16 90 11 45 8 823 -3 870 -7 30 -24 109
-32 156 -20 108 -104 379 -117 379 -5 0 -6 4 -3 10 3 5 -3 27 -14 48 -11 22
-17 42 -14 46 4 3 1 6 -5 6 -7 0 -12 4 -12 9 0 5 -8 26 -17 47 -9 22 -17 41
-18 44 0 3 -3 10 -7 15 -3 6 -28 53 -55 105 -27 52 -66 121 -86 153 -20 31
-37 60 -37 62 0 6 -148 213 -165 231 -5 6 -30 35 -55 65 -160 189 -385 396
-550 504 -25 17 -49 34 -55 38 -13 10 -187 116 -250 153 -27 16 -53 27 -57 26
-5 -1 -8 3 -8 10 0 6 -3 8 -6 5 -4 -3 -25 4 -48 17 -22 13 -81 41 -131 61 -49
21 -104 44 -121 51 -17 8 -40 15 -50 17 -11 1 -23 5 -29 9 -17 10 -177 57
-251 73 -38 8 -76 17 -84 19 -8 2 -35 7 -60 12 -25 4 -47 8 -50 9 -3 1 -45 7
-95 14 -49 7 -103 15 -120 17 -33 6 -521 15 -526 10z"/>
</g>
</svg>
